<?xml version="1.0" standalone="no"?>
<!DOCTYPE svg PUBLIC "-//W3C//DTD SVG 1.1//EN" "http://www.w3.org/Graphics/SVG/1.1/DTD/svg11.dtd" >
<svg xmlns="http://www.w3.org/2000/svg">
<metadata>
<json>
<![CDATA[
{
	"fontFamily": "habeetat",
	"majorVersion": 1,
	"minorVersion": 0,
	"version": "Version 1.0",
	"fontId": "habeetat",
	"psName": "habeetat",
	"subFamily": "Regular",
	"fullName": "habeetat",
	"description": "Font generated by IcoMoon."
}
]]>
</json>
</metadata>
<defs>
<font id="habeetat" horiz-adv-x="1024">
<font-face units-per-em="1024" ascent="960" descent="-64" />
<missing-glyph horiz-adv-x="1024" />
<glyph unicode="&#x20;" horiz-adv-x="512" d="" />
<glyph unicode="&#xe900;" glyph-name="arrowdown" data-tags="arrowdown" d="M941.523 696.996c44.347-76.008 66.532-159.005 66.532-248.999 0-89.999-22.185-172.996-66.532-248.993-44.353-76.002-104.536-136.185-180.526-180.526-76.008-44.347-159.006-66.532-249-66.532-89.998 0-172.996 22.185-248.992 66.532-76.008 44.341-136.186 104.524-180.533 180.526-44.351 75.997-66.526 158.994-66.526 248.993 0 89.994 22.174 172.991 66.526 248.999 44.347 75.99 104.525 136.174 180.533 180.527 75.996 44.346 158.994 66.532 248.992 66.532 89.994 0 172.993-22.186 249-66.532 75.99-44.354 136.173-104.537 180.526-180.527zM688.329 752.218c-53.828 31.43-112.606 47.154-176.332 47.154-63.731 0-122.508-15.724-176.331-47.154-53.829-31.435-96.461-74.068-127.884-127.89-31.442-53.829-47.154-112.606-47.154-176.332 0-63.731 15.712-122.508 47.154-176.325 31.423-53.835 74.055-96.467 127.884-127.891 53.823-31.435 112.6-47.153 176.331-47.153 63.726 0 122.504 15.718 176.332 47.153 53.823 31.425 96.455 74.056 127.89 127.891 31.43 53.817 47.154 112.594 47.154 176.325 0 63.726-15.724 122.503-47.154 176.332-31.436 53.822-74.068 96.456-127.89 127.89zM739.357 427.331c0-5.168-2.16-10.336-6.462-15.504l-206.040-206.041c-4.741-3.874-9.689-5.814-14.858-5.814-5.168 0-10.122 1.94-14.851 5.814l-206.692 206.688c-6.456 6.882-7.969 14.424-4.521 22.606 3.441 8.61 9.903 12.917 19.379 12.917h124.015v227.361c0 6.022 1.935 10.983 5.809 14.857 3.875 3.875 8.823 5.809 14.858 5.809h124.016c6.022 0 10.976-1.934 14.851-5.809s5.815-8.835 5.815-14.857v-227.36h124.016c6.022 0 10.976-1.934 14.851-5.809 3.875-3.88 5.815-8.834 5.815-14.857z" />
<glyph unicode="&#xe901;" glyph-name="arrowdrop" data-tags="arrowdrop" d="M994.436 649.095c0-8.381-3.231-15.8-9.668-22.237l-450.531-450.53c-6.453-6.453-13.867-9.668-22.237-9.668-8.386 0-15.8 3.215-22.237 9.668l-450.53 450.531c-6.452 6.437-9.668 13.856-9.668 22.237 0 8.369 3.216 15.789 9.668 22.235l48.34 48.341c6.437 6.437 13.851 9.668 22.237 9.668 8.37 0 15.784-3.232 22.236-9.668l379.954-379.955 379.955 379.954c6.436 6.437 13.85 9.668 22.236 9.668 8.37 0 15.784-3.232 22.237-9.668l48.34-48.341c6.437-6.446 9.668-13.865 9.668-22.235z" />
<glyph unicode="&#xe902;" glyph-name="arrowleft" data-tags="arrowleft" d="M795.011 852.577c0-8.435-3.25-15.896-9.728-22.37l-382.206-382.208 382.206-382.207c6.478-6.493 9.728-13.951 9.728-22.373 0-8.433-3.25-15.895-9.728-22.368l-48.624-48.624c-6.488-6.488-13.951-9.727-22.367-9.727-8.439 0-15.896 3.239-22.374 9.727l-453.202 453.204c-6.488 6.473-9.727 13.935-9.727 22.368 0 8.419 3.239 15.879 9.727 22.37l453.203 453.202c6.478 6.476 13.935 9.728 22.374 9.728 8.416 0 15.879-3.252 22.367-9.728l48.624-48.627c6.478-6.487 9.727-13.95 9.727-22.367z" />
<glyph unicode="&#xe903;" glyph-name="arrowright" data-tags="arrowright" d="M795.011 448.001c0-8.435-3.253-15.897-9.723-22.37l-453.21-453.209c-6.488-6.488-13.948-9.723-22.366-9.723-8.438 0-15.898 3.235-22.374 9.723l-48.626 48.629c-6.488 6.473-9.723 13.936-9.723 22.37 0 8.42 3.235 15.879 9.723 22.367l382.211 382.213-382.21 382.21c-6.488 6.473-9.723 13.936-9.723 22.367 0 8.419 3.235 15.882 9.723 22.37l48.626 48.627c6.476 6.475 13.936 9.725 22.374 9.725 8.418 0 15.878-3.25 22.366-9.725l453.21-453.207c6.47-6.488 9.722-13.951 9.722-22.367z" />
<glyph unicode="&#xe904;" glyph-name="clear-day" data-tags="clear-day" d="M168.71 431.652c0-10.905-5.46-16.347-16.347-16.347h-130.774c-10.888 0-16.348 5.442-16.348 16.347 0 10.892 5.46 16.348 16.348 16.348h130.775c10.886 0 16.346-5.456 16.346-16.348zM187.102 95.518c-3.419-3.401-7.154-5.105-11.238-5.105-4.089 0-7.841 1.704-11.239 5.105-8.174 7.504-8.174 15.324 0 23.501l91.951 91.948c3.402 3.401 7.311 5.112 11.75 5.112 4.422 0 8.332-1.711 11.748-5.112 7.486-7.504 7.486-15.324 0-23.494l-92.972-91.955zM164.625 789.247c-3.419 3.395-5.109 7.146-5.109 11.235s1.69 7.819 5.109 11.241c3.398 3.395 7.15 5.106 11.239 5.106 4.084 0 7.819-1.711 11.238-5.106l92.972-91.954c3.401-3.415 5.108-7.329 5.108-11.746 0-4.439-1.707-8.353-5.108-11.754-2.729-2.728-6.481-4.082-11.239-4.082-5.459 0-9.545 1.354-12.259 4.082l-91.951 92.978zM517.104 192.578c-36.107 0-69.983 6.803-101.655 20.436-31.674 13.613-59.435 32.183-83.269 55.677-23.851 23.501-42.576 51.244-56.192 83.273-13.633 32.007-20.436 66.055-20.436 102.166 0 36.096 6.803 69.983 20.436 101.661 13.616 31.671 32.341 59.415 56.192 83.266 23.834 23.837 51.595 42.562 83.269 56.195 31.671 13.612 65.547 20.429 101.655 20.429 36.096 0 69.99-6.817 101.66-20.429 31.672-13.633 59.414-32.358 83.266-56.195 23.838-23.851 42.562-51.595 56.196-83.266 13.618-31.678 20.436-65.565 20.436-101.661 0-36.11-6.818-70.158-20.436-102.166-13.634-32.029-32.358-59.772-56.196-83.273-23.852-23.494-51.594-42.064-83.266-55.677-31.669-13.633-65.564-20.436-101.66-20.436zM517.104 682.985c-31.334 0-60.965-5.968-88.883-17.876-27.936-11.922-52.282-28.27-73.051-49.042-20.787-20.786-37.134-45.129-49.042-73.048-11.926-27.94-17.88-57.569-17.88-88.89 0-32.022 5.954-61.813 17.88-89.395 11.908-27.589 28.255-51.77 49.042-72.542 20.769-20.787 45.115-37.134 73.051-49.042 27.919-11.923 57.549-17.877 88.883-17.877 31.32 0 60.956 5.954 88.89 17.877 27.918 11.908 52.268 28.255 73.054 49.042 20.766 20.772 37.114 44.953 49.036 72.542 11.908 27.582 17.882 57.374 17.882 89.395 0 31.32-5.974 60.951-17.882 88.89-11.922 27.919-28.27 52.262-49.036 73.048-20.786 20.773-45.136 37.12-73.054 49.042-27.934 11.907-57.57 17.876-88.89 17.876zM495.651 791.287c-10.902 0-16.347 5.443-16.347 16.348v130.772c0 10.891 5.445 16.347 16.347 16.347 10.888 0 16.348-5.456 16.348-16.347v-130.772c0-10.906-5.46-16.348-16.348-16.348zM511.999-42.407c0-10.891-5.46-16.347-16.348-16.347-10.902 0-16.347 5.456-16.347 16.347v130.772c0 10.905 5.445 16.347 16.347 16.347 10.888 0 16.348-5.442 16.348-16.347v-130.772zM776.614 692.186c-4.77 0-8.528 1.354-11.236 4.082-3.422 3.401-5.112 7.314-5.112 11.754 0 4.418 1.69 8.331 5.112 11.746l91.948 91.954c8.17 8.17 15.998 8.17 23.502 0 7.487-7.504 7.487-14.993 0-22.477l-91.956-92.978c-3.415-2.728-7.503-4.082-12.257-4.082zM880.828 119.018c7.487-8.177 7.487-15.997 0-23.501-3.416-3.401-7.154-5.105-11.236-5.105-3.422 0-7.504 1.704-12.266 5.105l-91.948 91.955c-3.422 3.395-5.112 7.308-5.112 11.747 0 4.418 1.69 8.332 5.112 11.747 7.484 7.49 15.324 7.49 23.494 0l91.957-91.949zM1002.404 448c10.892 0 16.356-5.456 16.356-16.348 0-10.905-5.464-16.347-16.356-16.347h-130.772c-10.904 0-16.346 5.442-16.346 16.347 0 10.892 5.442 16.348 16.346 16.348h130.772z" />
<glyph unicode="&#xe905;" glyph-name="clear-night" data-tags="clear-night" d="M621.181-51.134c-68.895 0-133.551 12.983-193.991 38.999-60.445 25.979-113.423 61.711-158.907 107.229-45.517 45.49-81.251 98.46-107.235 158.913-26.017 60.44-38.999 125.082-38.999 193.993 0 68.884 12.982 133.553 38.999 194.006 25.984 60.44 61.718 113.383 107.235 158.899 45.484 45.491 98.462 81.224 158.907 107.242 60.44 25.977 125.096 38.986 193.991 38.986 96.174 0 184.558-25.349 265.179-76.031 10.385-6.532 15.591-15.605 15.591-27.303 0-13.010-5.206-21.454-15.591-25.349-63.705-41.608-113.437-94.901-149.169-159.876-35.763-65.015-53.614-135.199-53.614-210.573 0-75.403 17.851-145.585 53.614-210.574 35.732-65.002 85.464-117.654 149.169-157.925 10.385-6.517 15.591-14.961 15.591-25.347 0-11.698-5.206-20.81-15.591-27.303-81.907-51.995-170.302-77.985-265.179-77.985zM621.181 884.74c-61.109 0-117.954-11.389-170.596-34.114-52.644-22.751-98.796-53.949-138.431-93.59-39.669-39.67-70.865-86.122-93.59-139.402-22.758-53.321-34.121-109.865-34.121-169.635 0-59.798 11.362-116.341 34.121-169.622 22.725-53.319 53.921-99.773 93.59-139.415 39.635-39.667 85.787-70.865 138.431-93.59 52.642-22.752 109.487-34.114 170.596-34.114 64.992 0 128.696 14.923 191.088 44.846-61.121 46.79-108.215 104.312-141.356 172.555-33.162 68.239-49.732 141.353-49.732 219.338s16.569 151.112 49.732 219.353c33.141 68.243 80.234 126.392 141.356 174.493-63.703 28.587-127.408 42.894-191.088 42.894z" />
<glyph unicode="&#xe906;" glyph-name="cloudy" data-tags="cloudy" d="M221.836 63.848c-24.518 0-47.682 4.93-69.471 14.811-21.797 9.867-40.872 23.15-57.213 39.848-16.354 16.684-29.286 36.271-38.824 58.748s-14.306 46.307-14.306 71.519c0 25.191 4.769 48.86 14.306 71.007 9.538 22.126 22.47 41.713 38.824 58.741 16.341 17.020 35.416 30.478 57.213 40.36 21.789 9.867 44.953 14.811 69.471 14.811 18.388 0 36.432-3.064 54.154-9.194 4.755 20.436 12.413 39.161 22.989 56.195 10.547 17.014 23.494 31.672 38.824 43.93 15.317 12.266 32.337 21.797 51.083 28.606 18.725 6.803 38.642 10.218 59.765 10.218 6.129 19.062 15.148 36.608 27.070 52.619 11.915 15.997 25.878 29.63 41.897 40.865 15.99 11.242 33.368 20.085 52.106 26.565 18.726 6.466 38.312 9.706 58.742 9.706 26.564 0 51.25-4.944 74.070-14.811 22.822-9.882 42.92-23.501 60.284-40.872 17.366-17.364 30.984-37.464 40.872-60.277 9.862-22.827 14.812-47.506 14.812-74.072 0-27.252-5.624-53.13-16.858-77.648-11.236-24.517-27.073-45.977-47.508-64.365 12.26-15.674 21.966-33.046 29.118-52.107 7.154-19.075 10.73-39.175 10.73-60.277 0-25.212-4.776-49.042-14.306-71.519-9.552-22.477-22.484-42.064-38.824-58.748-16.348-16.698-35.43-29.981-57.212-39.848-21.81-9.881-44.954-14.811-69.478-14.811h-392.33zM74.716 248.774c0-20.436 3.928-40.023 11.748-58.748 7.833-18.746 18.394-34.918 31.677-48.53 13.276-13.634 28.936-24.525 46.987-32.695 18.045-8.177 36.945-12.259 56.708-12.259h392.329c19.748 0 38.648 4.082 56.7 12.259 18.038 8.17 33.718 19.061 47.002 32.695 13.282 13.612 23.83 29.784 31.67 48.53 7.826 18.725 11.754 38.312 11.754 58.748 0 20.429-3.928 40.002-11.754 58.741-7.84 18.732-18.388 34.897-31.67 48.53-13.284 13.619-28.964 24.525-47.002 32.695-18.052 8.177-36.952 12.266-56.7 12.266-0.688-0.688-1.704-1.024-3.064-1.024-9.552 0-14.994 4.418-16.348 13.282-3.416 17.014-9.706 32.85-18.9 47.506-9.202 14.637-20.1 27.232-32.694 37.801-12.61 10.555-26.916 18.731-42.914 24.524-16.011 5.779-32.534 8.682-49.547 8.682-18.395 0-36.118-3.416-53.131-10.218-17.034-6.817-32.022-16.011-44.954-27.583-12.946-11.592-23.675-25.387-32.189-41.377-8.521-16.017-13.788-33.558-15.835-52.618 0-4.776-2.722-8.858-8.17-12.259-5.463-2.735-10.218-2.735-14.299 0-21.124 8.843-41.223 13.283-60.284 13.283-19.763 0-38.663-4.089-56.708-12.266-18.051-8.17-33.711-19.076-46.987-32.695-13.283-13.633-23.844-29.798-31.677-48.53-7.819-18.737-11.747-38.31-11.747-58.74zM376.108 706.486c-7.504 7.49-7.504 15.323 0 23.5 7.49 7.484 14.98 7.484 22.484 0l46.994-47.001c3.402-3.415 5.113-7.146 5.113-11.235s-1.711-7.84-5.113-11.242c-3.415-3.415-7.504-5.105-12.258-5.105-4.089 0-7.841 1.69-11.242 5.105l-45.978 45.979zM628.466 660.508c-32.696 0-62.318-9.032-88.884-27.070-26.564-18.058-45.641-42.064-57.212-72.030 34.048-6.13 63.677-20.787 88.883-43.93 25.19-23.164 42.562-51.44 52.106-84.802 21.11-1.374 40.69-6.129 58.748-14.306 18.038-8.17 34.896-19.076 50.57-32.695 17.022 14.973 30.142 32.695 39.338 53.131 9.194 20.436 13.794 41.888 13.794 64.365 0 21.79-4.088 42.226-12.26 61.301-8.176 19.062-19.412 35.76-33.718 50.066-14.306 14.3-30.998 25.542-50.058 33.712-19.074 8.178-39.511 12.258-61.307 12.258zM622.336 734.075c-10.898 0-16.34 5.442-16.34 16.347v65.383c0 10.891 5.442 16.347 16.34 16.347 10.892 0 16.354-5.456 16.354-16.347v-65.383c0-10.905-5.462-16.347-16.354-16.347zM826.682 655.403c-4.096 0-7.842 1.69-11.25 5.105-3.408 3.402-5.104 7.154-5.104 11.242s1.696 7.82 5.104 11.235l45.978 47.001c7.49 7.484 15.33 7.484 23.508 0 7.482-8.177 7.482-16.010 0-23.5l-47.002-45.978c-3.422-3.416-7.153-5.106-11.234-5.106zM833.828 314.156c-3.416 3.402-5.112 7.154-5.112 11.242s1.696 7.82 5.112 11.235c3.402 3.401 7.314 5.113 11.746 5.113 4.426 0 8.332-1.712 11.754-5.113l45.978-45.97c7.482-7.504 7.482-15.331 0-23.501-2.736-2.728-6.48-4.088-11.242-4.088-4.776 0-8.858 1.36-12.258 4.088l-45.978 46.993zM965.624 488.865c10.89 0 16.354-5.456 16.354-16.347 0-10.899-5.464-16.348-16.354-16.348h-65.39c-10.898 0-16.34 5.449-16.34 16.348 0 10.891 5.442 16.347 16.34 16.347h65.39z" />
<glyph unicode="&#xe907;" glyph-name="fog" data-tags="fog" d="M23.574 359.191c-14.812 0-22.211 7.402-22.211 22.203 0 34.212 6.466 66.824 19.429 97.828 12.944 30.984 30.527 58.282 52.729 81.865 22.203 23.593 48.091 42.089 77.702 55.51 29.604 13.392 61.054 20.116 94.361 20.116 24.050 0 48.567-3.705 73.541-11.096 6.458 27.745 17.106 53.176 31.916 76.311 14.793 23.117 32.603 43.014 53.424 59.673 20.812 16.649 44.157 29.593 70.073 38.851 25.889 9.239 53.176 13.877 81.865 13.877 55.51 0 104.772-16.44 147.785-49.262 43.014-32.851 71.913-75.626 86.723-128.354 31.441-1.868 61.273-9.954 89.503-24.278 28.204-14.354 52.729-32.851 73.541-55.51 20.811-22.679 37.461-49.262 49.957-79.788 12.477-30.527 18.726-62.435 18.726-95.742 0-14.801-7.411-22.203-22.203-22.203-14.811 0-22.202 7.402-22.202 22.203 0 28.669-5.333 55.719-15.954 81.179-10.647 25.43-24.983 47.871-43.022 67.292-18.030 19.43-39.318 34.698-63.826 45.794-24.526 11.096-50.184 16.649-77.006 16.649h-4.173c-12.952 0-20.354 6.011-22.192 18.040-4.649 23.117-13.182 44.404-25.678 63.834-12.479 19.421-27.299 36.29-44.405 50.644-17.125 14.335-36.546 25.43-58.272 33.298-21.746 7.858-44.185 11.801-67.302 11.801-24.973 0-49.042-4.4-72.158-13.182-23.126-8.801-43.49-21.297-61.054-37.47-17.582-16.191-32.146-35.165-43.7-56.891-11.582-21.746-18.734-45.091-21.506-70.073 0-8.324-3.714-13.877-11.105-16.649-5.553-3.706-12.040-4.162-19.431-1.391-24.973 12.010-52.271 18.040-81.865 18.040-26.839 0-52.509-5.553-77.007-16.649-24.526-11.096-45.794-26.365-63.834-45.794-18.040-19.421-32.393-41.861-43.013-67.292-10.648-25.46-15.964-52.51-15.964-81.179 0.002-14.801-7.408-22.203-22.189-22.203zM23.574 259.287c-14.812 0-22.211 7.391-22.211 22.202 0 14.782 7.399 22.203 22.211 22.203h976.862c14.792 0 22.203-7.421 22.203-22.203 0-14.811-7.411-22.202-22.203-22.202h-976.862zM23.574 170.479c-14.812 0-22.211 7.391-22.211 22.202 0 14.792 7.399 22.202 22.211 22.202h976.862c14.792 0 22.203-7.41 22.203-22.202 0-14.811-7.411-22.202-22.203-22.202h-976.862zM23.574 81.67c-14.812 0-22.211 7.401-22.211 22.203 0 14.79 7.399 22.202 22.211 22.202h976.862c14.792 0 22.203-7.412 22.203-22.202 0-14.802-7.411-22.203-22.203-22.203h-976.862z" />
<glyph unicode="&#xe908;" glyph-name="partly-cloudy-day" data-tags="partly-cloudy-day" d="M241.906 45.515c-31.77 0-61.788 6.162-90.023 18.54-28.264 12.342-52.964 29.118-74.14 50.31-21.193 21.175-37.969 46.112-50.311 74.793-12.376 28.682-18.538 58.927-18.538 90.698s6.162 61.998 18.538 90.697c12.342 28.663 29.118 53.619 50.311 74.799 21.176 21.183 45.876 37.941 74.14 50.31 28.235 12.35 58.253 18.534 90.023 18.534 23.83 0 47.212-3.972 70.178-11.914 6.162 26.477 16.085 50.746 29.79 72.816 13.668 22.052 30.445 41.046 50.311 56.931 19.856 15.89 41.913 28.241 66.196 37.074 24.265 8.81 50.073 13.237 77.447 13.237 7.942 24.7 19.63 47.434 35.088 68.186 15.432 20.725 33.534 38.392 54.282 52.955 20.73 14.564 43.241 26.028 67.524 34.425 24.264 8.379 49.647 12.578 76.119 12.578 33.535 0 65.315-6.411 95.333-19.198 29.99-12.805 56.272-30.45 78.774-52.96 22.51-22.506 40.15-48.552 52.964-78.111 12.777-29.585 19.194-61.566 19.194-95.991 0-35.311-7.289-68.636-21.848-99.958-14.559-31.34-34.644-58.916-60.234-82.749 14.994-19.421 27.136-41.042 36.406-64.87s13.904-49.438 13.904-76.792c0-31.771-6.189-62.015-18.538-90.698-12.378-28.681-29.128-53.618-50.312-74.793-21.185-21.192-45.904-37.968-74.139-50.31-28.264-12.378-58.253-18.54-90.033-18.54h-508.408zM241.906 471.833c-26.482 0-51.418-5.089-74.802-15.227-23.4-10.156-43.684-23.838-60.898-41.049-17.211-17.204-30.68-37.515-40.386-60.89-9.724-23.401-14.559-48.329-14.559-74.811s4.835-51.429 14.559-74.802c9.706-23.402 23.175-43.686 40.386-60.899 17.214-17.212 37.498-30.917 60.898-41.040 23.384-10.161 48.321-15.232 74.802-15.232h508.406c26.482 0 51.174 5.071 74.147 15.232 22.938 10.123 43.023 23.828 60.235 41.040s30.881 37.497 41.042 60.899c10.141 23.373 15.23 48.321 15.23 74.802s-5.089 51.41-15.23 74.811c-10.161 23.375-23.83 43.686-41.042 60.89-17.212 17.211-37.297 30.893-60.235 41.049-22.973 10.138-47.665 15.227-74.147 15.227-0.891-0.891-2.646-1.326-5.3-1.326-11.477 0-18.103 5.729-19.856 17.211-4.425 22.053-12.578 42.573-24.492 61.567-11.914 18.967-26.045 35.288-42.368 48.983-16.339 13.678-34.879 24.27-55.6 31.776-20.756 7.489-42.167 11.256-64.215 11.256-23.828 0-46.803-4.426-68.849-13.241-22.075-8.834-41.495-20.748-58.253-35.748-16.777-15.018-30.681-32.894-41.706-53.619-11.041-20.752-17.875-43.485-20.52-68.185 0-6.185-3.535-11.478-10.587-15.886-6.198-3.54-12.378-3.54-18.54 0-27.37 11.46-53.417 17.212-78.119 17.212zM768.841 808.117c-42.358 0-80.754-11.709-115.178-35.084-34.426-23.397-59.144-54.509-74.14-93.342 43.24-7.943 81.428-26.932 114.527-56.926 33.097-30.018 55.807-66.655 68.177-109.892 27.354-1.777 53.164-7.737 77.456-17.872 24.264-10.159 46.102-24.060 65.532-41.709 21.185 19.407 37.734 42.141 49.656 68.187 11.906 26.023 17.868 53.618 17.868 82.744 0 28.241-5.29 54.719-15.886 79.442-10.596 24.697-25.156 46.335-43.694 64.874-18.54 18.535-40.169 33.099-64.87 43.69-24.718 10.592-51.202 15.886-79.447 15.886z" />
<glyph unicode="&#xe909;" glyph-name="partly-cloudy-night" data-tags="partly-cloudy-night" d="M811.532 497.975c27.778-1.649 54.143-8.584 79.092-20.849 24.934-12.261 46.601-28.415 65.002-48.436 18.4-20.043 32.896-43.132 43.536-69.286 10.607-26.179 15.943-53.563 15.943-82.166 0-30.252-5.724-58.865-17.172-85.843-11.466-26.98-26.971-50.489-46.601-70.515-19.613-20.042-42.526-35.987-68.671-47.829-26.179-11.862-53.958-17.779-83.386-17.779h-470.923c-29.429 0-57.223 5.917-83.386 17.779-26.17 11.842-49.051 27.787-68.671 47.829-19.623 20.026-35.161 43.535-46.6 70.515-11.465 26.978-17.172 55.591-17.172 85.843 0 31.062 6.532 60.894 19.629 89.523-9.815 6.532-19.225 12.88-28.215 19.006-9.007 6.129-17.585 13.275-25.75 21.459-35.986 35.967-58.865 78.063-68.671 126.31-1.65 6.534 0 12.264 4.907 17.166 4.9 4.908 11.027 6.94 18.393 6.134 36.794-9.004 72.965-8.184 108.53 2.454 35.556 10.614 66.836 29.011 93.807 55.186 26.161 26.154 44.555 57.215 55.186 93.202 10.624 35.964 11.448 72.349 2.459 109.139-1.651 7.363 0 13.489 4.899 18.398 4.916 4.902 11.045 6.532 18.401 4.902 49.059-11.455 90.744-34.336 125.087-68.671 18.797-18.818 34.126-39.857 45.987-63.157 11.844-23.3 20.227-48.036 25.143-74.191 27.783 13.89 58.037 20.847 90.748 20.847 49.058 0 92.578-14.524 130.61-43.537 38.013-29.029 63.956-66.833 77.863-113.434zM105.164 435.433c14.715-13.907 30.237-25.346 46.6-34.336 19.622 28.61 44.765 51.908 75.423 69.9 30.657 17.971 64.378 26.978 101.164 26.978 21.254 0 42.929-3.277 65-9.81 12.265 52.308 39.648 93.601 82.167 123.858-2.449 25.329-9.007 49.055-19.623 71.127-10.639 22.073-24.529 42.097-41.7 60.089-22.072 22.076-48.243 38.823-78.479 50.278 4.083-38.435-0.21-75.628-12.88-111.594-12.684-35.985-32.922-67.446-60.699-94.425-27.804-27.804-59.479-48.25-95.037-61.318-35.572-13.086-72.569-17.589-110.987-13.489 5.708-13.911 12.45-27.4 20.227-40.47 7.763-13.091 17.368-25.351 28.825-36.789zM799.276 94.515c23.704 0 46.382 4.909 68.048 14.715 21.651 9.814 40.473 22.878 56.417 39.243 15.942 16.348 28.603 35.759 38.013 58.25 9.395 22.475 14.108 45.986 14.108 70.515s-4.713 47.83-14.108 69.901c-9.41 22.071-22.071 41.273-38.013 57.636-15.944 16.348-34.766 29.429-56.417 39.24-21.666 9.811-44.344 14.718-68.048 14.718h-3.688c-10.639 0-17.171 5.307-19.612 15.943-4.109 20.427-11.466 39.24-22.088 56.411-10.624 17.169-23.722 32.077-39.227 44.761-15.556 12.666-32.93 22.476-52.122 29.429-19.226 6.935-39.059 10.425-59.48 10.425-22.072 0-43.132-3.889-63.15-11.65-20.051-7.778-37.833-18.818-53.356-33.111-15.539-14.314-28.418-31.078-38.629-50.28-10.228-19.216-16.558-39.857-19.007-61.928-1.649-7.358-4.907-12.264-9.807-14.718-5.732-3.27-11.868-3.675-18.4-1.224-22.071 10.612-46.197 15.942-72.359 15.942-23.722 0-46.399-4.907-68.049-14.718-21.676-9.811-40.473-22.892-56.415-39.24-15.944-16.362-28.629-35.565-38.016-57.636-9.41-22.071-14.107-45.371-14.107-69.901s4.697-48.040 14.107-70.515c9.387-22.491 22.072-41.902 38.016-58.25 15.943-16.365 34.739-29.429 56.415-39.243 21.649-9.806 44.327-14.715 68.049-14.715h470.925z" />
<glyph unicode="&#xe90a;" glyph-name="rain" data-tags="rain" d="M249.849 235.014c-34.601 0-66.446 7.948-95.575 23.88-29.137 15.922-54.394 36.868-75.772 62.81-21.395 25.941-38.228 54.619-50.523 86.016-12.278 31.404-18.425 63.021-18.425 94.894 0 31.85 6.147 63.701 18.425 95.575 12.295 31.85 29.129 60.519 50.523 86.016 21.377 25.472 46.635 46.184 75.772 62.122 29.129 15.913 60.974 23.893 95.575 23.893 23.654 0 47.788-3.65 72.37-10.922 6.355 27.305 16.831 52.332 31.397 75.092 14.545 22.742 32.088 42.329 52.567 58.71 20.476 16.386 43.457 29.118 68.947 38.228 25.473 9.090 52.333 13.655 80.561 13.655 54.61 0 103.072-16.171 145.405-48.467 42.324-32.324 70.768-74.413 85.332-126.296 32.764-1.836 63.017-11.158 90.794-27.989 27.759-16.855 51.883-37.783 72.369-62.806 20.469-25.046 36.392-53.036 47.779-83.968 11.378-30.956 17.076-61.91 17.076-92.843 0-31.873-6.149-63.49-18.444-94.894-12.277-31.397-29.137-60.075-50.515-86.016-21.396-25.942-46.887-46.888-76.455-62.81-29.59-15.932-61.228-23.88-94.891-23.88h-524.292zM249.849 726.529c-27.31 0-53.026-6.827-77.14-20.479-24.134-13.655-45.050-31.189-62.801-52.567-17.75-21.396-31.64-45.525-41.648-72.365-10.028-26.855-15.014-53.031-15.014-78.505 0-26.409 4.986-52.801 15.014-79.187 10.009-26.41 23.898-50.308 41.648-71.677 17.751-21.406 38.667-38.912 62.801-52.576 24.114-13.646 49.83-20.477 77.14-20.477h524.292c27.301 0 53.016 6.831 77.14 20.477 24.105 13.664 45.059 31.17 62.81 52.576 17.751 21.369 31.611 45.267 41.64 71.677 9.999 26.386 15.023 52.778 15.023 79.187 0 25.474-5.024 51.649-15.023 78.505-10.029 26.84-23.889 50.969-41.64 72.365-17.751 21.377-38.705 38.912-62.81 52.567-24.124 13.651-49.839 20.479-77.14 20.479h-4.096c-4.564 0-9.11 1.578-13.655 4.779-4.563 3.178-7.3 7.508-8.19 12.971-4.565 22.741-12.971 43.692-25.257 62.806-12.298 19.114-26.861 35.712-43.693 49.835-16.85 14.099-35.969 25.022-57.347 32.768-21.395 7.722-43.475 11.603-66.212 11.603-24.582 0-48.265-4.33-71.001-12.971-22.765-8.66-42.793-20.946-60.075-36.864-17.3-15.932-31.64-34.601-43.017-55.979-11.386-21.395-18.425-44.372-21.162-68.948 0-8.192-3.636-13.655-10.918-16.383-5.464-3.651-11.837-4.096-19.11-1.368-24.572 11.822-51.431 17.751-80.559 17.751zM293.541 147.63c0 14.546 7.272 21.837 21.845 21.837 14.554 0 21.846-7.291 21.846-21.837v-174.766c0-14.545-7.293-21.847-21.846-21.847-14.573 0-21.845 7.302-21.845 21.847v174.766zM424.616 147.63c0 14.546 7.272 21.837 21.837 21.837 14.555 0 21.856-7.291 21.856-21.837v-87.383c0-14.554-7.3-21.855-21.856-21.855-14.564 0-21.837 7.301-21.837 21.855v87.383zM555.691 147.63c0 14.546 7.274 21.837 21.837 21.837 14.554 0 21.855-7.291 21.855-21.837v-174.766c0-14.545-7.301-21.847-21.855-21.847-14.563 0-21.837 7.302-21.837 21.847v174.766zM686.757 147.63c0 14.546 7.283 21.837 21.846 21.837 14.545 0 21.846-7.291 21.846-21.837v-87.383c0-14.554-7.301-21.855-21.846-21.855-14.563 0-21.846 7.301-21.846 21.855v87.383z" />
<glyph unicode="&#xe90b;" glyph-name="sleet" data-tags="sleet" d="M68.166 59.089c4.212 4.222 9.039 6.318 14.525 6.318 5.462 0 10.298-2.096 14.518-6.318 9.257-10.098 9.257-19.769 0-29.044l-40.398-40.398c-4.231-4.204-8.842-6.318-13.903-6.318-4.213 0-9.265 2.114-15.151 6.318-4.211 4.222-6.31 9.049-6.31 14.516 0 5.488 2.099 10.315 6.31 14.52l40.408 40.405zM1002.552 518.708c0-31.152-5.893-60.828-17.673-89.021-11.795-28.213-27.778-52.837-47.983-73.864-20.204-21.053-43.777-37.885-70.707-50.503-26.947-12.629-55.565-18.949-85.866-18.949h-484.866c-30.31 0-58.938 6.32-85.868 18.949-26.946 12.618-50.504 29.45-70.715 50.503-20.196 21.027-36.196 45.651-47.983 73.864-11.787 28.193-17.673 57.869-17.673 89.021 0 31.132 5.886 60.809 17.673 89.022 11.787 28.194 27.787 53.035 47.983 74.495 20.211 21.468 43.769 38.3 70.715 50.514 26.93 12.186 55.558 18.304 85.868 18.304 21.876 0 44.185-3.371 66.92-10.098 5.875 25.248 15.566 48.39 29.043 69.443 13.452 21.035 29.669 39.141 48.608 54.301 18.946 15.151 40.198 26.929 63.772 35.354 23.559 8.408 48.4 12.629 74.496 12.629 50.504 0 95.332-14.96 134.472-44.827 39.144-29.894 65.449-68.819 78.927-116.801 28.601-1.698 55.745-9.057 81.437-22.093 25.672-13.061 47.982-29.893 66.928-50.513 18.929-20.637 34.089-44.827 45.451-72.606 11.364-27.781 17.042-56.817 17.042-87.125zM113.626 518.708c0-26.097 4.835-50.721 14.517-73.864 9.672-23.168 22.726-43.56 39.142-61.244 16.415-17.68 35.779-31.564 58.088-41.671 22.292-10.097 45.66-15.149 70.084-15.149h484.865c24.406 0 47.775 5.052 70.085 15.149 22.291 10.107 41.671 23.991 58.087 41.671 16.407 17.684 29.451 38.076 39.142 61.244 9.663 23.143 14.517 47.767 14.517 73.864 0 26.080-4.854 50.703-14.517 73.871-9.691 23.141-22.735 43.562-39.142 61.234-16.416 17.681-35.796 31.575-58.087 41.673-22.31 10.097-45.679 15.15-70.085 15.15h-3.78c-11.804 0-18.53 5.469-20.211 16.416-4.222 21.036-11.995 40.407-23.358 58.088-11.363 17.672-24.831 33.023-40.399 46.084-15.592 13.044-33.265 23.142-53.044 30.3-19.779 7.142-40.199 10.739-61.234 10.739-22.734 0-44.627-4.005-65.655-11.996-21.062-8.009-39.583-19.38-55.565-34.096-16-14.734-29.254-32-39.776-51.77-10.537-19.787-17.038-41.030-19.569-63.764 0-7.576-3.371-12.629-10.107-15.15-5.044-3.371-10.946-3.789-17.672-1.266-22.734 10.929-47.565 16.416-74.495 16.416-24.424 0-47.792-5.053-70.084-15.15-22.309-10.098-41.673-23.991-58.088-41.673-16.416-17.673-29.47-38.093-39.142-61.234-9.682-23.169-14.517-47.791-14.517-73.871zM258.829 220.718c9.256-10.107 9.256-19.789 0-29.046l-101.008-101.017c-4.222-4.202-8.842-6.31-13.887-6.31-5.060 0-9.689 2.107-13.892 6.31-10.099 9.275-10.099 18.947 0 29.044l99.752 101.019c4.202 4.202 9.030 6.308 14.526 6.308 5.461 0 10.296-2.106 14.509-6.308zM229.794 59.089c4.202 4.222 9.030 6.318 14.526 6.318 5.461 0 10.297-2.096 14.509-6.318 9.256-10.098 9.256-19.769 0-29.044l-40.398-40.398c-4.222-4.204-8.842-6.318-13.894-6.318-4.222 0-9.274 2.114-15.151 6.318-4.22 4.222-6.31 9.049-6.31 14.516 0 5.488 2.090 10.315 6.31 14.52l40.407 40.405zM420.456 220.718c9.258-10.107 9.258-19.789 0-29.046l-101.009-101.018c-4.229-4.202-8.84-6.31-13.893-6.31s-9.681 2.107-13.894 6.31c-10.097 9.275-10.097 18.947 0 29.044l99.76 101.019c4.195 4.202 9.032 6.308 14.517 6.308 5.469 0.001 10.296-2.105 14.518-6.307zM391.42 59.089c4.195 4.222 9.032 6.318 14.517 6.318 5.47 0 10.298-2.096 14.519-6.318 9.258-10.098 9.258-19.769 0-29.044l-40.407-40.398c-4.212-4.204-8.84-6.318-13.885-6.318-4.22 0-9.274 2.114-15.149 6.318-4.231 4.222-6.311 9.049-6.311 14.516 0 5.488 2.080 10.315 6.311 14.52l40.405 40.405zM551.668 29.208c0-13.213-6.619-19.833-19.825-19.833-4.961 0-9.513 1.855-13.639 5.573-4.144 3.718-6.204 8.483-6.204 14.26 0 5.787 2.060 10.535 6.204 14.253 4.126 3.719 8.678 5.582 13.639 5.582 13.206 0.001 19.825-6.603 19.825-19.835zM591.336 187.869c0-13.222-6.62-19.833-19.825-19.833-4.961 0-9.514 1.863-13.639 5.581-4.145 3.719-6.204 8.466-6.204 14.252 0 5.778 2.059 10.543 6.204 14.262 4.125 3.716 8.678 5.573 13.639 5.573 13.204 0 19.825-6.621 19.825-19.835zM631.004 108.544c0 5.785 2.059 10.533 6.202 14.251 4.127 3.718 8.67 5.582 13.639 5.582 13.206 0 19.825-6.628 19.825-19.833 0-13.215-6.62-19.834-19.825-19.834-4.969 0-9.512 1.855-13.639 5.574-4.143 3.716-6.202 8.482-6.202 14.26zM750.005 187.869c0 5.778 2.059 10.543 6.194 14.262 4.136 3.716 8.678 5.573 13.639 5.573 13.214 0 19.833-6.621 19.833-19.835 0-13.222-6.619-19.833-19.833-19.833-4.961 0-9.503 1.863-13.639 5.581-4.135 3.719-6.194 8.465-6.194 14.252z" />
<glyph unicode="&#xe90c;" glyph-name="snow" data-tags="snow" d="M254.123 243.853c-31.345 0-61.343 6.922-89.979 20.816-28.671 13.875-53.729 32.681-75.218 56.412-21.49 23.711-38.739 51.249-51.71 82.602-12.989 31.326-19.47 64-19.47 98.046 0 34.912 6.481 67.825 19.47 98.708 12.971 30.893 30.22 58.199 51.71 81.93 21.489 23.712 46.548 42.518 75.218 56.412 28.635 13.865 58.634 20.816 89.979 20.816 22.375 0 46.548-3.586 72.528-10.749 6.259 26.865 16.327 51.48 30.22 73.872 13.874 22.375 30.892 41.634 51.036 57.75 20.143 16.125 42.749 28.653 67.824 37.614 25.058 8.932 51.48 13.423 79.247 13.423 53.72 0 101.614-15.904 143.708-47.672 42.076-31.796 70.277-73.2 84.613-124.237 30.423-1.806 59.094-10.076 85.959-24.845 26.864-14.778 50.354-33.807 70.508-57.086 20.152-23.296 36.267-50.152 48.344-80.585 12.095-30.451 18.144-62.237 18.144-95.352 0-34.046-6.508-66.72-19.48-98.046-12.99-31.353-30.22-58.891-51.71-82.602-21.49-23.731-46.565-42.537-75.21-56.412-28.67-13.894-58.652-20.816-89.987-20.816h-515.745zM254.123 716.616c-27.768 0-53.286-6.508-76.555-19.47-23.288-12.99-43.643-29.548-61.104-49.7-17.461-20.143-31.123-43.211-40.97-69.162-9.864-25.989-14.769-51.507-14.769-76.555 0-25.086 4.905-50.373 14.769-75.893 9.847-25.518 23.509-48.574 40.97-69.16 17.461-20.614 37.816-37.402 61.104-50.373 23.269-12.991 48.787-19.472 76.555-19.472h515.745c27.74 0 53.498 6.481 77.228 19.472 23.713 12.971 44.086 29.759 61.104 50.373 17 20.586 30.432 43.642 40.297 69.16 9.837 25.52 14.778 50.807 14.778 75.893 0 25.048-4.941 50.566-14.778 76.555-9.865 25.951-23.297 49.018-40.297 69.163-17.018 20.152-37.391 36.709-61.104 49.7-23.73 12.962-49.488 19.47-77.228 19.47h-2.683c-12.557 0-19.711 5.817-21.498 17.461-9.856 44.758-32.461 81.701-67.816 110.805-35.383 29.087-76.353 43.651-122.892 43.651-24.181 0-47.237-4.259-69.18-12.759-21.94-8.528-41.412-20.614-58.411-36.267-17.019-15.672-31.123-34.037-42.316-55.066-11.201-21.046-18.124-43.651-20.816-67.826 0-8.057-3.586-13.432-10.74-16.115-5.376-4.489-11.645-4.932-18.799-1.345-25.988 11.623-52.846 17.458-80.594 17.458zM275.613 157.893c0 6.26 2.221 11.423 6.719 15.452 4.463 4.027 9.403 6.039 14.769 6.039 14.307 0 21.489-7.174 21.489-21.491 0-14.326-7.181-21.489-21.489-21.489-5.367 0-10.307 2.018-14.769 6.047-4.497 4.029-6.719 9.173-6.719 15.442zM361.571 71.944c0 6.268 2.221 11.414 6.719 15.441 4.463 4.029 9.395 6.048 14.77 6.048 14.307 0 21.489-7.181 21.489-21.489 0-14.318-7.181-21.49-21.489-21.49-5.376 0-10.308 2.010-14.77 6.039-4.497 4.027-6.719 9.191-6.719 15.451zM490.5-14.017c0-14.316-7.172-21.489-21.48-21.489-5.375 0-10.308 2.010-14.778 6.038-4.489 4.029-6.722 9.191-6.722 15.451 0 6.27 2.232 11.414 6.722 15.443 4.471 4.029 9.403 6.048 14.778 6.048 14.308 0.001 21.48-7.154 21.48-21.491zM533.48 157.893c0-14.326-7.172-21.489-21.48-21.489-5.375 0-10.308 2.018-14.778 6.047-4.49 4.029-6.722 9.173-6.722 15.442 0 6.26 2.231 11.423 6.722 15.452 4.471 4.027 9.403 6.039 14.778 6.039 14.308 0.001 21.48-7.173 21.48-21.491zM576.46 71.944c0 6.268 2.231 11.414 6.719 15.441 4.472 4.029 9.394 6.048 14.778 6.048 14.308 0 21.48-7.181 21.48-21.489 0-14.318-7.172-21.49-21.48-21.49-5.384 0-10.306 2.010-14.778 6.039-4.488 4.027-6.719 9.191-6.719 15.451zM705.398 157.893c0 6.26 2.231 11.423 6.711 15.452 4.481 4.027 9.403 6.039 14.778 6.039 14.317 0 21.489-7.174 21.489-21.491 0-14.326-7.172-21.489-21.489-21.489-5.375 0-10.297 2.018-14.778 6.047s-6.711 9.173-6.711 15.442z" />
<glyph unicode="&#xe90d;" glyph-name="wind" data-tags="wind" d="M58.097 400.595c-11.632 0-17.445 5.805-17.445 17.438 0 11.609 5.812 17.43 17.445 17.43h104.624c11.61 0 17.431-5.82 17.431-17.43 0-11.633-5.82-17.438-17.431-17.438h-104.624zM110.403 557.527c0 11.61 5.804 17.434 17.445 17.434h104.617c11.617 0 17.437-5.825 17.437-17.434 0-11.632-5.82-17.437-17.437-17.437h-104.617c-11.641 0-17.445 5.805-17.445 17.437zM197.589 470.341c-11.632 0-17.437 5.809-17.437 17.438 0 11.613 5.805 17.437 17.437 17.437h104.624c11.618 0 17.438-5.825 17.438-17.437 0-11.629-5.819-17.438-17.438-17.438h-104.624zM948.474 301.424c0-15.993-2.918-31.059-8.723-45.228-5.82-14.168-13.621-26.346-23.429-36.512-9.815-10.182-21.441-18.351-34.876-24.515-13.45-6.186-27.791-9.268-43.042-9.268-11.633 0-17.445 5.805-17.445 17.437 0 4.354 1.637 8.348 4.907 11.984 3.268 3.635 7.443 5.453 12.538 5.453 21.064 0 38.855 7.803 53.396 23.43 14.529 15.611 21.798 34.688 21.798 57.219 0 10.892-2.184 22.15-6.539 33.783-4.36 11.61-9.992 22.335-16.889 32.152-6.912 9.799-15.096 17.788-24.523 23.967-9.455 6.166-19.262 9.269-29.428 9.269h-603.756c-11.632 0-17.437 5.805-17.437 17.438 0 11.609 5.805 17.43 17.437 17.43h603.756c15.978 0 30.686-3.994 44.135-11.984 13.436-8.004 25.24-18.522 35.422-31.598 10.166-13.084 18.154-27.626 23.975-43.597 5.805-15.994 8.722-31.606 8.722-46.859zM284.775 557.527c0 11.61 5.805 17.434 17.437 17.434h418.489c11.61 0 17.43-5.825 17.43-17.434 0-11.632-5.82-17.437-17.43-17.437h-418.489c-11.632 0-17.437 5.805-17.437 17.437zM983.348 582.591c0-15.257-2.918-29.799-8.723-43.593-5.82-13.81-13.809-25.797-23.975-35.964-10.18-10.181-22.172-18.167-35.96-23.976-13.809-5.825-28.337-8.719-43.597-8.719h-499.139c-11.625 0-17.431 5.809-17.431 17.438 0 11.613 5.805 17.437 17.431 17.437h499.138c21.065 0 39.228 7.627 54.49 22.886 15.26 15.257 22.89 33.409 22.89 54.489 0 10.899-2.014 21.796-6.001 32.693-3.993 10.899-9.261 20.707-15.797 29.426-6.539 8.719-14.356 15.971-23.431 21.796-9.097 5.808-19.074 8.718-29.967 8.718-11.64 0-17.445 5.809-17.445 17.438 0 11.614 5.805 17.437 17.445 17.437 15.964 0 30.865-3.815 44.674-11.441 13.795-7.63 25.428-17.625 34.874-29.972 9.443-12.362 16.892-25.984 22.345-40.867 5.455-14.898 8.179-29.968 8.179-45.225z" />
<glyph unicode="&#xe90e;" glyph-name="location1" data-tags="location1" d="M512.009 931.137c-177.154 0-321.29-144.118-321.29-321.29 0-170.597 292.698-617.312 305.161-636.259 3.576-5.437 9.645-8.706 16.148-8.706s12.589 3.287 16.148 8.706c12.445 18.911 305.125 465.643 305.125 636.259 0 177.154-144.136 321.29-321.29 321.29zM512.009 6.804c-64.067 100.39-291.090 466.131-291.090 607.63 0 160.519 130.572 291.108 291.090 291.108 160.501 0 291.072-130.59 291.072-291.108 0.036-141.445-227.024-507.241-291.072-607.63zM512.009 759.726c-69.919 0-126.815-56.896-126.815-126.815 0-69.883 56.86-126.76 126.815-126.76s126.815 56.86 126.815 126.76c0 69.919-56.878 126.815-126.815 126.815zM512.009 544.822c-48.605 0-88.125 39.52-88.125 88.107 0 48.605 39.52 88.18 88.125 88.18s88.144-39.556 88.144-88.18c0-48.605-39.538-88.107-88.144-88.107z" />
<glyph unicode="&#xe929;" glyph-name="location" data-tags="location" d="M830.635 607.317c0-45.225-6.846-82.362-20.537-111.398l-226.529-481.686c-6.642-13.692-16.493-24.475-29.562-32.362-13.069-7.876-27.070-11.824-42.006-11.824s-28.939 3.948-42.009 11.824c-13.069 7.887-22.714 18.67-28.937 32.362l-227.152 481.686c-13.692 29.036-20.537 66.173-20.537 111.398 0 87.954 31.116 163.050 93.35 225.284s137.321 93.351 225.284 93.351c87.952 0 163.050-31.116 225.285-93.35s93.35-137.331 93.35-225.285zM624.642 494.675c31.117 31.116 46.675 68.662 46.675 112.642 0 43.972-15.558 81.526-46.675 112.642s-68.67 46.675-112.642 46.675c-43.983 0-81.526-15.558-112.642-46.675s-46.675-68.67-46.675-112.642c0-43.981 15.559-81.526 46.675-112.642 31.117-31.117 68.66-46.675 112.642-46.675 43.973 0 81.527 15.558 112.642 46.675z" />
<glyph unicode="&#xe92a;" glyph-name="logout" data-tags="logout" d="M966.73 410.106c0-61.579-12.046-120.399-36.118-176.444-24.080-56.055-56.452-104.413-97.102-145.063-40.662-40.662-89.019-73.023-145.064-97.106-56.055-24.072-114.867-36.118-176.445-36.118s-120.398 12.045-176.444 36.118c-56.054 24.083-104.413 56.444-145.064 97.106-40.66 40.65-73.031 89.008-97.104 145.063-24.081 56.045-36.118 114.865-36.118 176.444 0 71.837 15.885 139.531 47.663 203.089 31.771 63.548 76.473 116.837 134.11 159.865 16.967 12.629 35.822 17.56 56.545 14.802 20.724-2.766 37.201-12.636 49.441-29.603 12.628-16.579 17.466-35.23 14.506-55.953-2.961-20.724-12.731-37.405-29.309-50.033-38.69-29.217-68.591-64.936-89.703-107.169-21.122-42.243-31.677-87.242-31.677-134.998 0-41.058 7.994-80.23 23.98-117.532s37.599-69.57 64.835-96.807c27.235-27.238 59.505-48.849 96.807-64.834 37.302-15.987 76.472-23.98 117.531-23.98 41.050 0 80.229 7.993 117.531 23.98 37.303 15.985 69.573 37.596 96.807 64.834 27.237 27.237 48.848 59.505 64.836 96.807 15.985 37.302 23.981 76.474 23.981 117.532 0 47.756-10.567 92.755-31.679 134.998-21.12 42.233-51.021 77.952-89.701 107.169-16.579 12.628-26.35 29.309-29.31 50.033s1.87 39.374 14.506 55.953c12.232 16.967 28.81 26.837 49.736 29.603 20.918 2.758 39.672-2.173 56.25-14.802 57.626-43.028 102.33-96.317 134.108-159.865 31.773-63.559 47.667-131.252 47.667-203.089zM587.789 864.835v-378.941c0-20.53-7.503-38.291-22.501-53.289-15.006-15.005-32.767-22.499-53.288-22.499-20.529 0-38.291 7.494-53.289 22.499-15.005 14.998-22.498 32.759-22.498 53.289v378.941c0 20.52 7.493 38.283 22.498 53.289 14.999 14.996 32.761 22.5 53.289 22.5 20.521 0 38.282-7.503 53.288-22.5 14.999-15.006 22.501-32.769 22.501-53.289z" />
<glyph unicode="&#xe92c;" glyph-name="menu2" data-tags="menu" d="M997.029 811.757v-80.825c0-10.955-4.012-20.422-12.012-28.423-8.003-7.999-17.468-11.989-28.4-11.989h-889.234c-10.955 0-20.422 3.99-28.422 11.989-8.002 8.001-11.99 17.468-11.99 28.423v80.825c0 10.955 3.988 20.422 11.99 28.422 7.999 8.001 17.467 12.014 28.422 12.014h889.233c10.932 0 20.397-4.013 28.4-12.014 8.001-8.001 12.013-17.467 12.013-28.422zM997.029 488.412v-80.825c0-10.955-4.012-20.446-12.012-28.422-8.003-8.001-17.468-12.013-28.4-12.013h-889.234c-10.955 0-20.422 4.012-28.422 12.013-8.002 7.976-11.99 17.467-11.99 28.422v80.825c0 10.955 3.988 20.422 11.99 28.423 7.999 7.999 17.467 11.989 28.422 11.989h889.233c10.932 0 20.397-3.99 28.4-11.989 8.001-8.001 12.013-17.467 12.013-28.423zM997.029 165.068v-80.848c0-10.956-4.012-20.422-12.012-28.423-8.003-7.999-17.468-11.989-28.4-11.989h-889.234c-10.955 0-20.422 3.99-28.422 11.989-8.002 8.001-11.99 17.467-11.99 28.423v80.848c0 10.932 3.988 20.422 11.99 28.424 7.999 7.976 17.467 11.988 28.422 11.988h889.233c10.932 0 20.397-4.012 28.4-11.988 8.001-8.003 12.013-17.492 12.013-28.424z" />
<glyph unicode="&#xe92d;" glyph-name="notification" data-tags="notification" d="M573.778 869.961l423.615-776.629c12.868-23.166 12.496-46.333-1.103-69.499-6.257-10.661-14.807-19.115-25.649-25.373-10.85-6.248-22.529-9.377-35.026-9.377h-847.231c-12.504 0-24.183 3.129-35.025 9.377-10.851 6.258-19.401 14.712-25.649 25.373-13.6 23.166-13.97 46.333-1.103 69.499l423.615 776.629c6.248 11.393 14.892 20.409 25.925 27.027 11.031 6.618 22.977 9.929 35.852 9.929 12.867 0 24.821-3.31 35.852-9.929 11.033-6.618 19.668-15.634 25.926-27.027zM581.5 354.782l9.929 253.176c0 4.414-1.846 7.903-5.517 10.481-4.783 4.041-9.194 6.067-13.238 6.067h-121.346c-4.051 0-8.463-2.026-13.238-6.067-3.679-2.577-5.515-6.439-5.515-11.583l9.376-252.074c0-3.68 1.836-6.713 5.516-9.101 3.671-2.396 8.083-3.586 13.238-3.586h102.042c5.145 0 9.463 1.19 12.962 3.586 3.492 2.39 5.421 5.423 5.793 9.102zM582.602 148.49v104.8c0 5.147-1.748 9.464-5.239 12.962-3.499 3.491-7.636 5.241-12.411 5.241h-105.903c-4.783 0-8.92-1.75-12.411-5.241-3.498-3.498-5.24-7.815-5.24-12.962v-104.8c0-5.153 1.742-9.472 5.24-12.962 3.491-3.5 7.628-5.239 12.411-5.239h105.902c4.775 0 8.912 1.739 12.411 5.239 3.492 3.49 5.24 7.809 5.24 12.962z" />
<glyph unicode="&#xe92f;" glyph-name="arrowup" data-tags="arrowup" d="M941.529 696.996c44.343-76.005 66.525-159.004 66.525-248.998 0-90.002-22.182-173.004-66.525-248.996-44.358-76.007-104.536-136.189-180.532-180.532-76.007-44.343-159.004-66.525-248.996-66.525-90.004 0-173.002 22.182-248.997 66.525-76.005 44.343-136.186 104.525-180.53 180.532-44.356 75.992-66.529 158.993-66.529 248.996 0 89.993 22.173 172.993 66.529 248.998 44.344 75.994 104.525 136.175 180.53 180.53 75.995 44.346 158.993 66.529 248.997 66.529 89.992 0 172.989-22.183 248.996-66.529 75.996-44.356 136.175-104.536 180.532-180.53zM688.335 752.221c-53.832 31.427-112.61 47.15-176.333 47.15-63.734 0-122.511-15.724-176.332-47.15-53.834-31.437-96.463-74.068-127.891-127.89-31.437-53.832-47.15-112.609-47.15-176.333 0-63.731 15.713-122.507 47.15-176.333 31.429-53.832 74.058-96.462 127.891-127.889 53.821-31.437 112.598-47.148 176.332-47.148 63.722 0 122.501 15.711 176.333 47.148 53.82 31.427 96.451 74.057 127.888 127.889 31.427 53.825 47.149 112.602 47.149 176.333 0 63.724-15.722 122.5-47.149 176.333-31.438 53.822-74.069 96.454-127.888 127.89zM738.068 460.917c-3.453-8.619-9.913-12.919-19.38-12.919h-124.010v-227.359c0-6.036-1.935-10.978-5.813-14.855-3.877-3.878-8.83-5.813-14.859-5.813h-124.010c-6.036 0-10.98 1.935-14.855 5.813-3.876 3.877-5.814 8.819-5.814 14.855v227.359h-124.014c-6.036 0-10.98 1.939-14.855 5.814s-5.814 8.82-5.814 14.855c0 5.167 2.151 10.334 6.46 15.501l206.043 206.044c4.734 3.876 9.69 5.813 14.857 5.813 5.165 0 10.111-1.937 14.856-5.813l206.69-206.69c6.458-6.892 7.958-14.43 4.519-22.606z" />
<glyph unicode="&#xe930;" glyph-name="plus" data-tags="plus" d="M985.179 512.521v-129.047c0-17.928-6.281-33.165-18.82-45.703-12.55-12.551-27.787-18.82-45.703-18.82h-279.607v-279.608c0-17.924-6.281-33.165-18.82-45.704-12.55-12.55-27.787-18.819-45.703-18.819h-129.051c-17.924 0-33.165 6.269-45.703 18.819-12.55 12.539-18.819 27.78-18.819 45.704v279.608h-279.603c-17.928 0-33.169 6.269-45.708 18.82-12.55 12.538-18.819 27.775-18.819 45.703v129.047c0 17.92 6.269 33.157 18.819 45.707 12.539 12.539 27.779 18.819 45.708 18.819h279.603v279.605c0 17.916 6.269 33.157 18.819 45.707 12.539 12.539 27.779 18.819 45.703 18.819h129.051c17.916 0 33.153-6.281 45.703-18.819 12.539-12.55 18.82-27.791 18.82-45.707v-279.604h279.608c17.916 0 33.153-6.281 45.703-18.819 12.539-12.551 18.819-27.788 18.819-45.708z" />
<glyph unicode="&#xe931;" glyph-name="prediction" data-tags="prediction" d="M1006.299 139.062v-61.787h-988.598v741.449h61.788v-679.662h926.81zM820.938 633.362l123.574-432.512h-803.236v278.043l216.257 278.044 278.044-278.044 185.361 154.469z" />
<glyph unicode="&#xe932;" glyph-name="beehivers" data-tags="beehivers" d="M616.007 915.399c-132.417-50.543-248.531-126.248-348.358-227.121-99.835-100.872-174.599-217.936-224.3-351.172-8.361 37.169-12.531 73.929-12.531 110.269 0 86.875 21.401 167.178 64.22 240.903 42.81 73.718 100.969 131.986 174.492 174.806 73.51 42.808 153.706 64.218 240.591 64.218 34.244 0 69.546-3.973 105.886-11.904zM784.545 840.84c38.847-27.155 73.092-59.519 102.755-97.112-162.493-47.205-303.358-130.849-422.603-250.928-119.259-120.090-202.061-261.377-248.423-423.855-38.845 30.075-71.221 63.908-97.114 101.501 46.774 161.225 129.273 301.365 247.482 420.406 118.201 119.044 257.51 202.373 417.903 249.988zM325.291 5.039c48.028 148.693 127.284 278.591 237.771 389.706 110.474 111.103 239.855 191.301 388.142 240.593 16.699-38.434 27.978-79.159 33.833-122.177-121.969-50.122-229.734-122.172-323.294-216.156-93.567-93.98-165.201-202.166-214.903-324.547-43.026 5.854-83.546 16.712-121.549 32.581zM993.183-31.304c-80.621 20.895-157.263 44.906-229.942 72.055-56.387-35.086-116.954-57.428-181.697-67.040 45.525 85.621 102.752 162.997 171.674 232.131 68.919 69.127 145.981 126.661 231.193 172.613-8.772-63.495-29.871-122.801-63.283-177.938 27.149-73.098 51.161-150.368 72.056-231.819z" />
<glyph unicode="&#xe933;" glyph-name="calendar" data-tags="calendar" d="M961.875 724.846v-692.114c0-18.738-6.853-34.961-20.548-48.664-13.703-13.695-29.924-20.548-48.664-20.548h-761.327c-18.747 0-34.97 6.853-48.665 20.548-13.703 13.703-20.547 29.926-20.547 48.664v692.114c0 18.739 6.843 34.96 20.547 48.665 13.695 13.695 29.917 20.548 48.665 20.548h69.211v51.908c0 23.792 8.466 44.153 25.414 61.1 16.939 16.94 37.309 25.414 61.1 25.414h34.605c23.793 0 44.153-8.474 61.1-25.414 16.941-16.947 25.414-37.308 25.414-61.1v-51.908h207.635v51.908c0 23.792 8.466 44.153 25.413 61.1 16.94 16.94 37.31 25.414 61.101 25.414h34.605c23.793 0 44.153-8.474 61.101-25.414 16.941-16.947 25.414-37.308 25.414-61.1v-51.908h69.211c18.74 0 34.961-6.853 48.664-20.548 13.697-13.704 20.551-29.925 20.551-48.665zM131.337 430.697h155.726v155.726h-155.726v-155.726zM131.337 223.062h155.726v173.029h-155.726v-173.029zM131.337 32.731h155.726v155.727h-155.726v-155.727zM338.972 690.239v155.726c0 4.681-1.715 8.736-5.136 12.166-3.431 3.421-7.486 5.136-12.167 5.136h-34.605c-4.688 0-8.745-1.715-12.165-5.136-3.431-3.43-5.136-7.486-5.136-12.166v-155.726c0-4.689 1.706-8.744 5.136-12.166 3.421-3.43 7.477-5.136 12.165-5.136h34.605c4.682 0 8.737 1.706 12.167 5.136 3.421 3.422 5.136 7.477 5.136 12.166zM321.668 430.697h173.029v155.726h-173.029v-155.726zM321.668 223.062h173.029v173.029h-173.029v-173.029zM321.668 32.731h173.029v155.727h-173.029v-155.727zM529.303 430.697h173.029v155.726h-173.029v-155.726zM529.303 223.062h173.029v173.029h-173.029v-173.029zM529.303 32.731h173.029v155.727h-173.029v-155.727zM754.241 690.239v155.726c0 4.681-1.715 8.736-5.136 12.166-3.431 3.421-7.486 5.136-12.168 5.136h-34.605c-4.688 0-8.745-1.715-12.166-5.136-3.43-3.43-5.136-7.486-5.136-12.166v-155.726c0-4.689 1.706-8.744 5.136-12.166 3.421-3.43 7.478-5.136 12.166-5.136h34.605c4.682 0 8.737 1.706 12.168 5.136 3.421 3.422 5.136 7.477 5.136 12.166zM736.937 430.697h155.726v155.726h-155.726v-155.726zM736.937 223.062h155.726v173.029h-155.726v-173.029zM736.937 32.731h155.726v155.727h-155.726v-155.727z" />
<glyph unicode="&#xe934;" glyph-name="search2" data-tags="search" d="M982.504 49.88c0-19.598-7.167-36.564-21.49-50.896-14.332-14.322-31.298-21.489-50.895-21.489-20.359 0-37.324 7.167-50.896 21.489l-193.971 193.405c-67.489-46.752-142.703-70.122-225.638-70.122-53.917 0-105.467 10.462-154.666 31.385s-91.614 49.2-127.24 84.827c-35.628 35.627-63.903 78.041-84.827 127.239-20.924 49.2-31.386 100.75-31.386 154.668 0 53.908 10.462 105.467 31.386 154.667s49.199 91.613 84.827 127.24c35.626 35.627 78.040 63.903 127.24 84.826s100.749 31.386 154.666 31.386c53.91 0 105.468-10.461 154.667-31.386s91.613-49.199 127.24-84.826 63.903-78.040 84.826-127.24c20.924-49.199 31.386-100.758 31.386-154.667 0-82.945-23.38-158.157-70.124-225.639l193.971-193.969c13.943-13.944 20.923-30.908 20.923-50.897zM618.598 341.402c49.571 49.571 74.365 109.231 74.365 178.984 0 69.743-24.794 129.404-74.365 178.984-49.579 49.57-109.241 74.365-178.984 74.365-69.752 0-129.413-24.794-178.984-74.365-49.579-49.579-74.364-109.24-74.364-178.984 0-69.753 24.785-129.413 74.364-178.984 49.571-49.58 109.232-74.365 178.984-74.365 69.743 0 129.405 24.785 178.984 74.365z" />
<glyph unicode="&#xe935;" glyph-name="settings" data-tags="settings" d="M1002.862 517.667v-141.89c0-5.113-1.707-10.017-5.113-14.7-3.414-4.694-7.668-7.461-12.783-8.309l-118.241-17.896c-8.099-23.009-16.408-42.403-24.927-58.162 14.911-21.311 37.711-50.712 68.39-88.203 4.254-5.113 6.39-10.445 6.39-15.977 0-5.542-1.916-10.446-5.751-14.7-11.506-15.77-32.596-38.779-63.275-69.028-30.679-30.261-50.714-45.379-60.081-45.379-5.113 0-10.655 1.916-16.616 5.751l-88.203 69.029c-18.754-9.807-38.137-17.896-58.162-24.289-6.819-57.942-13.003-97.569-18.534-118.879-2.987-11.926-10.655-17.896-23.009-17.896h-141.889c-5.972 0-11.185 1.818-15.659 5.431-4.474 3.626-6.931 8.211-7.35 13.743l-17.896 117.601c-20.883 6.812-40.057 14.702-57.523 23.65l-90.119-68.39c-4.265-3.835-9.587-5.751-15.98-5.751-5.972 0-11.294 2.337-15.977 7.031-53.688 48.573-88.841 84.365-105.46 107.376-2.985 4.254-4.474 9.158-4.474 14.7 0 5.113 1.699 10.006 5.113 14.7 6.393 8.948 17.257 23.109 32.597 42.503 15.338 19.385 26.844 34.403 34.513 45.060-11.504 21.302-20.242 42.392-26.203 63.275l-116.963 17.257c-5.543 0.849-10.017 3.515-13.422 7.989-3.414 4.474-5.113 9.476-5.113 15.020v141.887c0 5.113 1.699 10.008 5.113 14.702 3.406 4.684 7.451 7.449 12.144 8.307l118.881 17.896c5.962 19.595 14.27 39.198 24.925 58.803-17.048 24.287-39.847 53.688-68.388 88.2-4.265 5.113-6.391 10.228-6.391 15.341 0 4.254 1.917 9.158 5.752 14.7 11.074 15.338 32.057 38.238 62.954 68.708 30.889 30.46 51.022 45.699 60.399 45.699 5.534 0 11.076-2.138 16.618-6.393l88.202-68.388c18.744 9.797 38.128 17.896 58.162 24.286 6.81 57.942 12.993 97.57 18.535 118.881 2.977 11.924 10.644 17.896 23.009 17.896h141.891c5.961 0 11.185-1.818 15.659-5.433 4.474-3.626 6.92-8.208 7.35-13.74l17.896-117.604c20.872-6.82 40.046-14.7 57.521-23.647l90.76 68.388c3.835 3.835 8.948 5.754 15.338 5.754 5.534 0 10.867-2.138 15.98-6.393 54.965-50.712 90.118-86.922 105.457-108.654 2.976-3.416 4.474-8.1 4.474-14.061 0-5.113-1.707-10.016-5.113-14.702-6.39-8.948-17.257-23.118-32.596-42.503-15.338-19.394-26.844-34.414-34.514-45.058 11.076-21.311 19.815-42.185 26.205-62.636l116.963-17.896c5.534-0.859 10.008-3.515 13.422-7.989 3.405-4.473 5.112-9.487 5.112-15.019zM627.686 332.316c31.957 31.957 47.935 70.514 47.935 115.683 0 45.159-15.978 83.728-47.935 115.685s-70.526 47.937-115.685 47.937c-45.17 0-83.728-15.98-115.685-47.937s-47.937-70.526-47.937-115.685c0-45.17 15.98-83.726 47.937-115.683 31.957-31.959 70.516-47.935 115.685-47.935 45.159-0.001 83.728 15.976 115.685 47.935z" />
<glyph unicode="&#xe936;" glyph-name="close" data-tags="close" d="M990.085 156.639c0-21.467-7.521-39.712-22.536-54.728l-109.463-109.458c-15.028-15.016-33.273-22.536-54.727-22.536-21.471 0-39.716 7.52-54.732 22.536l-236.628 236.627-236.627-236.627c-15.028-15.016-33.278-22.536-54.732-22.536-21.466 0-39.716 7.52-54.731 22.536l-109.458 109.458c-15.028 15.016-22.536 33.261-22.536 54.728 0 21.458 7.508 39.707 22.536 54.731l236.627 236.63-236.627 236.628c-15.028 15.016-22.536 33.263-22.536 54.729 0 21.454 7.508 39.702 22.536 54.73l109.458 109.46c15.016 15.016 33.265 22.536 54.731 22.536 21.454 0 39.704-7.52 54.732-22.536l236.627-236.628 236.628 236.628c15.016 15.016 33.261 22.536 54.732 22.536 21.454 0 39.699-7.52 54.727-22.536l109.463-109.46c15.015-15.028 22.536-33.276 22.536-54.73 0-21.466-7.521-39.714-22.536-54.729l-236.627-236.628 236.628-236.629c15.015-15.024 22.535-33.274 22.535-54.732z" />
<glyph unicode="&#xe937;" glyph-name="facebook2" data-tags="facebook" d="M763.733 925.827v-153.838h-91.486c-33.415 0-55.94-6.992-67.595-20.977-11.652-13.986-17.48-34.962-17.48-62.933v-110.134h170.734l-22.726-172.483h-148.008v-442.283h-178.312v442.283h-148.593v172.483h148.592v127.031c0 72.258 20.197 128.29 60.603 168.114 40.399 39.816 94.201 59.728 161.411 59.728 57.107 0 101.394-2.331 132.86-6.992z" />
<glyph unicode="&#xe938;" glyph-name="sortcard" data-tags="sortcard" d="M474.043 789.624v-227.749c0-20.565-7.518-38.356-22.541-53.38-15.029-15.031-32.82-22.538-53.379-22.538h-303.663c-20.564 0-38.356 7.507-53.379 22.538-15.029 15.024-22.535 32.815-22.535 53.38v227.749c0 20.553 7.506 38.347 22.535 53.376 15.023 15.024 32.815 22.538 53.379 22.538h303.664c20.559 0 38.35-7.514 53.379-22.538 15.022-15.029 22.54-32.823 22.54-53.376zM474.043 334.125v-227.747c0-20.564-7.518-38.358-22.541-53.379-15.029-15.032-32.82-22.538-53.379-22.538h-303.663c-20.564 0-38.356 7.506-53.379 22.538-15.029 15.021-22.535 32.815-22.535 53.379v227.747c0 20.556 7.506 38.347 22.535 53.379 15.023 15.021 32.815 22.538 53.379 22.538h303.664c20.559 0 38.35-7.517 53.379-22.538 15.022-15.031 22.54-32.822 22.54-53.379zM1005.455 789.624v-227.749c0-20.565-7.517-38.356-22.54-53.38-15.030-15.031-32.821-22.538-53.38-22.538h-303.663c-20.564 0-38.355 7.507-53.378 22.538-15.030 15.024-22.536 32.815-22.536 53.38v227.749c0 20.553 7.506 38.347 22.536 53.376 15.023 15.024 32.814 22.538 53.378 22.538h303.664c20.559 0 38.35-7.514 53.38-22.538 15.022-15.029 22.539-32.823 22.539-53.376zM1005.455 334.125v-227.747c0-20.564-7.517-38.358-22.54-53.379-15.030-15.032-32.821-22.538-53.38-22.538h-303.663c-20.564 0-38.355 7.506-53.378 22.538-15.030 15.021-22.536 32.815-22.536 53.379v227.747c0 20.556 7.506 38.347 22.536 53.379 15.023 15.021 32.814 22.538 53.378 22.538h303.664c20.559 0 38.35-7.517 53.38-22.538 15.022-15.031 22.539-32.822 22.539-53.379z" />
<glyph unicode="&#xe939;" glyph-name="sortlist" data-tags="sortlist" d="M300.519 782.845v-105.74c0-14.686-5.148-27.178-15.421-37.45-10.284-10.281-22.771-15.42-37.449-15.42h-176.233c-14.69 0-27.177 5.14-37.45 15.42-10.284 10.272-15.42 22.764-15.42 37.45v105.74c0 14.678 5.136 27.169 15.42 37.45 10.273 10.272 22.76 15.42 37.45 15.42h176.234c14.678 0 27.165-5.148 37.449-15.42 10.273-10.281 15.42-22.772 15.42-37.45zM300.519 500.87v-105.74c0-14.686-5.148-27.178-15.421-37.45-10.284-10.28-22.771-15.42-37.449-15.42h-176.233c-14.69 0-27.177 5.14-37.45 15.42-10.284 10.272-15.42 22.764-15.42 37.45v105.74c0 14.678 5.136 27.17 15.42 37.45 10.273 10.272 22.76 15.42 37.45 15.42h176.234c14.678 0 27.165-5.148 37.449-15.42 10.273-10.28 15.42-22.772 15.42-37.45zM300.519 218.895v-105.74c0-14.686-5.148-27.178-15.421-37.45-10.284-10.28-22.771-15.42-37.449-15.42h-176.233c-14.69 0-27.177 5.14-37.45 15.42-10.284 10.272-15.42 22.764-15.42 37.45v105.74c0 14.678 5.136 27.17 15.42 37.45 10.273 10.272 22.76 15.42 37.45 15.42h176.234c14.678 0 27.165-5.148 37.449-15.42 10.273-10.28 15.42-22.772 15.42-37.45zM1005.455 782.845v-105.74c0-14.686-5.148-27.178-15.42-37.45-10.284-10.281-22.772-15.42-37.45-15.42h-528.701c-14.69 0-27.177 5.14-37.45 15.42-10.284 10.272-15.421 22.764-15.421 37.45v105.74c0 14.678 5.137 27.169 15.421 37.45 10.273 10.272 22.76 15.42 37.45 15.42h528.702c14.678 0 27.166-5.148 37.45-15.42 10.272-10.281 15.419-22.772 15.419-37.45zM1005.455 500.87v-105.74c0-14.686-5.148-27.178-15.42-37.45-10.284-10.28-22.772-15.42-37.45-15.42h-528.701c-14.69 0-27.177 5.14-37.45 15.42-10.284 10.272-15.421 22.764-15.421 37.45v105.74c0 14.678 5.137 27.17 15.421 37.45 10.273 10.272 22.76 15.42 37.45 15.42h528.702c14.678 0 27.166-5.148 37.45-15.42 10.272-10.28 15.419-22.772 15.419-37.45zM1005.455 218.895v-105.74c0-14.686-5.148-27.178-15.42-37.45-10.284-10.28-22.772-15.42-37.45-15.42h-528.701c-14.69 0-27.177 5.14-37.45 15.42-10.284 10.272-15.421 22.764-15.421 37.45v105.74c0 14.678 5.137 27.17 15.421 37.45 10.273 10.272 22.76 15.42 37.45 15.42h528.702c14.678 0 27.166-5.148 37.45-15.42 10.272-10.28 15.419-22.772 15.419-37.45z" />
<glyph unicode="&#xe93a;" glyph-name="gallery" data-tags="gallery" d="M1001.106 757.767v-619.535c0-22.416-7.985-41.601-23.947-57.571-15.968-15.96-35.155-23.947-57.571-23.947h-815.177c-22.418 0-41.611 7.987-57.571 23.947-15.97 15.97-23.947 35.155-23.947 57.571v619.535c0 22.417 7.977 41.603 23.947 57.572 15.96 15.961 35.153 23.946 57.571 23.946h815.177c22.416 0 41.603-7.985 57.571-23.946 15.962-15.969 23.947-35.155 23.947-57.572zM919.589 774.070h-815.178c-4.419 0-8.239-1.616-11.463-4.84-3.234-3.232-4.84-7.053-4.84-11.464v-619.535c0-4.417 1.607-8.239 4.84-11.461 3.223-3.235 7.044-4.84 11.463-4.84h815.177c4.41 0 8.231 1.605 11.462 4.84 3.225 3.222 4.841 7.044 4.841 11.461v619.536c0 4.41-1.616 8.232-4.841 11.464-3.23 3.224-7.051 4.839-11.461 4.839zM320.433 680.325c19.019-19.026 28.531-42.12 28.531-69.29 0-27.179-9.512-50.272-28.531-69.291-19.026-19.026-42.12-28.531-69.291-28.531-27.177 0-50.271 9.505-69.291 28.531-19.026 19.019-28.531 42.112-28.531 69.291 0 27.17 9.506 50.263 28.531 69.29 19.020 19.018 42.114 28.531 69.291 28.531 27.171 0.001 50.265-9.512 69.291-28.531zM870.676 415.393v-228.249h-717.355v97.821l163.036 163.035 81.518-81.519 260.857 260.858 211.944-211.946z" />
<glyph unicode="&#xe93b;" glyph-name="gplus2" data-tags="gplus" d="M460.937 468.889c0-13.926 6.184-27.562 18.568-40.908 12.377-13.347 27.364-26.503 44.972-39.458 17.596-12.966 35.105-27.182 52.513-42.649 17.405-15.478 32.293-35.597 44.68-60.348 12.376-24.763 18.569-52.222 18.569-82.395 0-34.817-9.287-68.285-27.854-100.388-27.853-47.198-68.67-81.908-122.435-104.159-53.775-22.239-111.411-33.362-172.919-33.362-51.063 0-98.744 8.034-143.034 24.080-44.299 16.058-77.465 42.65-99.515 79.788-14.317 23.207-21.47 48.541-21.47 76.010 0 31.337 8.605 60.353 25.823 87.039 17.208 26.693 40.129 48.932 68.76 66.735 50.674 31.711 128.818 51.061 234.425 58.024-12.384 16.247-21.569 30.553-27.561 42.94-6.002 12.376-8.995 26.491-8.995 42.358 0 13.926 4.061 30.365 12.185 49.323-17.797-1.551-30.953-2.322-39.457-2.322-57.256 0-105.517 18.66-144.776 55.995-39.267 37.328-58.896 84.619-58.896 141.875 0 31.714 6.964 62.469 20.89 92.261 13.927 29.784 33.075 55.125 57.446 76.014 29.784 25.532 65.080 44.482 105.897 56.866 40.81 12.375 82.879 18.569 126.208 18.569h242.548l-80.073-51.064h-76.015c28.622-24.371 50.285-50.101 64.988-77.175 14.698-27.082 22.049-58.027 22.049-92.842 0-27.853-4.739-52.903-14.216-75.144-9.483-22.249-20.889-40.238-34.235-53.965-13.344-13.735-26.791-26.311-40.327-37.716-13.545-11.415-25.050-23.31-34.525-35.686-9.484-12.385-14.217-25.151-14.217-38.298zM377.38 18.025c22.43 0 43.999 2.518 64.698 7.542 20.69 5.035 39.839 12.577 57.446 22.631 17.598 10.054 31.717 24.17 42.358 42.359 10.636 18.177 15.957 39.258 15.957 63.249 0 9.662-1.36 19.151-4.062 28.433-2.708 9.282-5.511 17.405-8.412 24.371s-8.124 14.988-15.668 24.080c-7.542 9.086-13.254 15.855-17.117 20.309-3.872 4.442-11.314 11.117-22.34 20.018-11.024 8.897-18.088 14.508-21.179 16.83-3.101 2.321-11.125 8.123-24.081 17.405-12.965 9.287-20.018 14.311-21.179 15.089-6.192 0.772-15.477 1.158-27.853 1.158-20.509 0-40.818-1.359-60.928-4.062-20.119-2.708-40.908-7.541-62.378-14.501-21.47-6.966-40.238-15.867-56.285-26.693-16.057-10.837-29.305-25.244-39.749-43.231s-15.667-38.397-15.667-61.219c0-27.079 6.764-50.974 20.309-71.664 13.536-20.695 31.234-36.752 53.093-48.16 21.85-11.414 44.871-19.918 69.051-25.529 24.175-5.608 48.835-8.417 73.986-8.417zM376.219 524.594c14.696 0 29.784 3.191 45.261 9.574 15.466 6.383 28.233 14.797 38.297 25.241 20.499 22.051 30.755 52.804 30.755 92.261 0 22.431-3.291 46.611-9.865 72.533-6.582 25.912-15.956 50.964-28.142 75.144-12.186 24.173-28.534 44.191-49.033 60.058-20.508 15.857-43.139 23.791-67.89 23.791-16.248 0-32.205-3.771-47.872-11.314-15.667-7.545-28.342-17.699-38.007-30.464-18.187-22.829-27.272-53.774-27.272-92.843 0-17.797 1.93-36.656 5.802-56.575 3.863-19.928 9.956-39.848 18.278-59.767 8.314-19.928 18.37-37.816 30.174-53.675 11.795-15.866 26.302-28.822 43.519-38.877 17.208-10.064 35.877-15.087 55.995-15.087zM847.394 526.335h123.595v-62.668h-123.595v-127.077h-60.928v127.077h-123.019v62.668h123.019v125.916h60.928v-125.916z" />
<glyph unicode="&#xe93c;" glyph-name="temperature" data-tags="temperature" d="M286.232 797.091c-56.43 0-102.757-45.856-102.913-102.142 0-147.997 0-296.119 0-444.161-51.864-42.947-74.318-113.122-54.124-178.572 21.422-69.428 85.045-117.091 156.998-117.055 71.948 0.016 135.522 47.741 156.876 117.175 20.126 65.437-2.276 135.557-54.166 178.449 0 147.976 0 295.951 0 443.924-0.026 56.286-46.24 102.381-102.671 102.381v0.001zM286.19 755.906c34.3 0 61.579-27.267 61.595-61.315 0-154.202 0-308.408 0-462.612l8.674-6.134c44.293-31.33 63.519-88.702 47.301-141.439-16.216-52.725-63.807-88.182-117.609-88.182-53.81 0-101.425 35.357-117.689 88.062-16.257 52.692 3.037 110.183 47.301 141.559l8.674 6.134c0 154.246 0 308.488 0 462.73 0.095 34.050 27.454 61.197 61.754 61.197v0zM286.116 201.581c-45.121 0-82.138-37.020-82.138-82.141s37.017-82.141 82.138-82.141 82.141 37.020 82.141 82.141-37.020 82.141-82.141 82.141zM286.116 160.508c22.926 0 41.069-18.143 41.069-41.069s-18.143-41.069-41.069-41.069-41.069 18.143-41.069 41.069 18.142 41.069 41.069 41.069zM285.796 714.952c-11.342-0.176-20.391-9.515-20.216-20.855v0-512.756c-0.159-11.338 8.906-20.665 20.246-20.823 11.341-0.162 20.665 8.902 20.827 20.241 0.003 0.197 0.003 0.388 0 0.582v512.756c0.178 11.34-8.871 20.679-20.213 20.856-0.213 0.003-0.43 0.003-0.643 0v-0.001zM676.28 838.16c-67.805 0-123.21-55.407-123.21-123.21s55.405-123.21 123.21-123.21c67.802 0 123.206 55.407 123.206 123.21s-55.404 123.21-123.206 123.21zM676.28 797.091c45.606 0 82.138-36.531 82.138-82.141 0-45.608-36.532-82.139-82.138-82.139-45.61 0-82.141 36.531-82.141 82.139 0 45.61 36.531 82.141 82.141 82.141zM675.957 940.837c-11.338-0.178-20.39-9.513-20.212-20.852 0-0.001 0-0.001 0-0.003v-40.459c-0.162-11.338 8.903-20.66 20.246-20.822 11.341-0.16 20.665 8.903 20.824 20.241 0.003 0.195 0.003 0.388 0 0.581v40.459c0.177 11.34-8.871 20.675-20.213 20.855-0.214 0.003-0.428 0.003-0.645 0zM839.975 879.216c-5.33-0.16-10.384-2.387-14.1-6.213l-20.11-20.079c-8.152-7.871-8.382-20.864-0.514-29.022 7.864-8.154 20.852-8.386 29.002-0.514 0.176 0.169 0.346 0.34 0.514 0.514l20.11 20.080c8.12 7.902 8.304 20.895 0.408 29.023-4.007 4.127-9.563 6.378-15.309 6.211zM511.996 879.227c-11.319 0.022-20.51-9.146-20.53-20.472-0.009-5.567 2.241-10.9 6.242-14.773l20.093-20.064c7.846-8.164 20.821-8.415 28.977-0.564 8.159 7.852 8.411 20.833 0.563 28.998-0.185 0.191-0.372 0.38-0.563 0.564l-20.093 20.064c-3.852 3.983-9.149 6.238-14.689 6.247zM675.957 571.208c-11.338-0.176-20.39-9.512-20.212-20.852 0 0 0 0 0-0.001v-40.459c-0.162-11.339 8.903-20.661 20.246-20.821 11.341-0.162 20.665 8.9 20.824 20.238 0.003 0.196 0.003 0.388 0 0.583v40.459c0.177 11.339-8.871 20.675-20.213 20.853-0.214 0.003-0.428 0.003-0.645 0zM471.218 735.486c-11.338 0.162-20.659-8.904-20.821-20.243-0.161-11.342 8.9-20.665 20.239-20.825 0.194-0.003 0.388-0.003 0.582 0h40.497c11.338-0.16 20.657 8.904 20.817 20.243 0.162 11.342-8.9 20.665-20.238 20.825-0.194 0.003-0.384 0.003-0.578 0h-40.498zM840.844 735.486c-11.336 0.162-20.66-8.904-20.818-20.243-0.162-11.342 8.9-20.665 20.238-20.825 0.194-0.003 0.388-0.003 0.58 0h40.496c11.338-0.16 20.662 8.904 20.82 20.243 0.162 11.342-8.9 20.665-20.238 20.825-0.194 0.003-0.388 0.003-0.582 0h-40.496zM820.020 612.278c-11.32 0.022-20.51-9.144-20.534-20.47-0.008-5.569 2.246-10.902 6.246-14.774l20.092-20.062c7.84-8.17 20.814-8.433 28.978-0.587 8.166 7.843 8.428 20.825 0.588 28.993-0.19 0.201-0.388 0.396-0.588 0.589l-20.094 20.062c-3.848 3.982-9.148 6.238-14.688 6.249zM531.963 612.278c-5.327-0.159-10.385-2.387-14.102-6.213l-20.108-20.082c-8.159-7.863-8.398-20.858-0.537-29.020 7.859-8.162 20.844-8.404 29.003-0.539 0.181 0.175 0.362 0.354 0.537 0.537l20.109 20.084c8.124 7.902 8.305 20.897 0.408 29.023-4.007 4.125-9.563 6.377-15.31 6.21z" />
<glyph unicode="&#xe93d;" glyph-name="weight" data-tags="weight" d="M892.215 3.412h-0.006c-25.52 0-49.917 9.529-68.694 26.831-17.209 15.863-124.699 141.018-319.484 371.983-5.839 6.925-5.616 17.115 0.524 23.776l35.907 38.968c6.134 6.664 16.272 7.721 23.653 2.465 246.125-175.281 379.644-272.188 396.835-288.033 19.919-18.35 31.502-43.367 32.609-70.433 1.106-27.065-8.394-52.943-26.75-72.861-19.141-20.781-46.329-32.697-74.594-32.697zM541.743 413.29c245.353-290.823 297.201-348.361 306.145-356.602 12.116-11.162 27.856-17.314 44.321-17.314 18.251 0 35.799 7.691 48.15 21.095 11.853 12.859 17.982 29.559 17.268 47.031-0.714 17.466-8.189 33.61-21.049 45.451-8.932 8.241-70.497 55.208-380.411 275.991l-14.423-15.653zM113.74 577.023c-21.001 0-41.075 7.837-56.525 22.072-33.835 31.189-35.998 84.083-4.823 117.915l164.293 178.317c15.754 17.098 38.131 26.902 61.386 26.902 21.005 0 41.082-7.844 56.531-22.085 16.39-15.102 25.919-35.682 26.829-57.953s-6.91-43.563-22.014-59.955l-164.293-178.314c-15.754-17.095-38.129-26.898-61.384-26.898zM278.070 886.267c-13.24 0-25.974-5.582-34.941-15.31l-164.293-178.314c-17.738-19.252-16.506-49.352 2.748-67.1 8.789-8.098 20.209-12.558 32.155-12.558 13.434 0 25.842 5.434 34.938 15.307l164.291 178.314c8.598 9.33 13.047 21.444 12.529 34.116s-5.939 24.382-15.266 32.975c-8.793 8.107-20.214 12.571-32.161 12.571zM182.919 458.882c-21.001 0-41.075 7.84-56.528 22.078-16.392 15.099-25.921 35.681-26.831 57.953s6.904 43.563 22.008 59.952l218.518 237.161c15.751 17.098 38.122 26.905 61.378 26.905 20.998 0 41.072-7.841 56.531-22.078 16.392-15.104 25.924-35.687 26.834-57.959 0.91-22.269-6.907-43.561-22.011-59.952l-218.513-237.16c-15.754-17.098-38.13-26.899-61.385-26.899zM401.464 826.969c-13.431 0-25.837-5.438-34.93-15.309l-218.522-237.16c-8.592-9.327-13.041-21.444-12.522-34.116 0.521-12.672 5.941-24.382 15.271-32.975 8.792-8.104 20.212-12.564 32.158-12.564 13.434 0 25.843 5.434 34.939 15.307l218.515 237.158c8.592 9.327 13.041 21.443 12.522 34.116s-5.941 24.385-15.269 32.978c-8.796 8.103-20.22 12.566-32.163 12.566zM399.933 313.332c-20.999 0-41.073 7.832-56.522 22.073-16.395 15.101-25.928 35.687-26.841 57.956-0.913 22.275 6.904 43.569 22.012 59.958l164.296 178.318c15.751 17.095 38.122 26.899 61.383 26.899 21.002 0 41.078-7.841 56.531-22.079 16.389-15.107 25.918-35.69 26.832-57.959 0.913-22.272-6.907-43.563-22.015-59.952l-164.293-178.316c-15.75-17.1-38.125-26.898-61.383-26.898zM564.262 622.573c-13.439 0-25.842-5.435-34.938-15.306l-164.297-178.318c-8.596-9.327-13.044-21.444-12.526-34.113 0.521-12.675 5.944-24.387 15.277-32.983 8.792-8.101 20.211-12.561 32.155-12.561 13.433 0 25.842 5.435 34.938 15.306l164.293 178.318c8.599 9.327 13.047 21.441 12.526 34.113s-5.941 24.385-15.271 32.981c-8.791 8.101-20.216 12.563-32.157 12.563zM276.531 372.625c-20.999 0-41.073 7.84-56.522 22.079-33.835 31.177-36.001 84.070-4.826 117.908l218.518 237.161c15.751 17.097 38.122 26.902 61.383 26.902 20.998 0 41.070-7.838 56.522-22.072 33.844-31.187 35.998-84.083 4.823-117.921l-218.51-237.156c-15.754-17.098-38.129-26.902-61.387-26.902zM495.085 740.712c-13.433 0-25.842-5.435-34.935-15.307l-218.519-237.16c-17.739-19.254-16.507-49.355 2.748-67.096 8.791-8.101 20.208-12.561 32.152-12.561 13.436 0 25.845 5.437 34.941 15.309l218.512 237.154c17.736 19.254 16.506 49.358-2.745 67.103-8.786 8.099-20.211 12.558-32.155 12.558zM179.328-26.23c-67.842 0-123.036 55.196-123.036 123.036 0 26.533 16.644 69.924 50.886 132.647 27.507 50.397 55.91 93.887 57.104 95.719 3.322 5.075 8.979 8.13 15.046 8.13 6.064 0 11.721-3.055 15.046-8.13 11.054-16.886 107.993-166.76 107.993-228.366 0.001-67.839-55.196-123.036-123.039-123.036zM179.381 281.771c-10.794-17.437-25.98-42.694-40.637-69.549-40.449-74.103-46.489-104.118-46.489-115.415 0-48.009 39.062-87.074 87.073-87.074 48.015 0 87.077 39.065 87.077 87.074 0.001 33.726-48.479 122.919-87.024 184.964z" />
<glyph unicode="&#xe93e;" glyph-name="hive" data-tags="hive" d="M97.102 799.728h56.258v-722.538c0-6.142 4.974-11.122 11.121-11.122h12.815v-83.050c0-6.141 4.995-11.121 11.122-11.121h111.213c6.147 0 11.121 4.98 11.121 11.121v83.050h402.474v-83.050c0-6.141 4.996-11.121 11.121-11.121h111.239c6.125 0 11.121 4.98 11.121 11.121v83.050h12.815c6.147 0 11.121 4.98 11.121 11.122v722.538h56.257c6.126 0 11.124 4.979 11.124 11.121v102.134c0 6.141-4.998 11.121-11.124 11.121h-829.795c-6.126 0-11.122-4.98-11.122-11.121v-102.134c0-6.142 4.996-11.121 11.122-11.121zM175.602 434.506h672.797v-169.427h-672.797v169.427zM848.398 456.747h-672.797v169.428h672.797v-169.428zM288.51-5.862h-88.97v71.93h88.97v-71.93zM824.459-5.862h-88.992v71.93h88.992v-71.93zM835.584 88.311h-659.983v154.526h672.797v-154.526h-12.813zM848.398 648.416h-672.797v151.311h672.797v-151.311zM108.222 901.861h807.554v-79.891h-807.554v79.891zM512 481.543c34.733 0 63.014 28.264 63.014 63.003 0 34.742-28.28 63.013-63.014 63.013-34.755 0-63.014-28.271-63.014-63.013 0-34.738 28.259-63.003 63.014-63.003zM512 585.316c22.483 0 40.772-18.29 40.772-40.771 0-22.477-18.289-40.761-40.772-40.761-22.482 0-40.771 18.284-40.771 40.761 0 22.481 18.289 40.771 40.771 40.771z" />
<glyph unicode="&#xe93f;" glyph-name="home" data-tags="home" d="M998.477 430.648l-37.749-45.057c-3.254-3.653-7.516-5.888-12.786-6.696h-1.826c-5.281 0-9.542 1.417-12.786 4.262l-421.329 351.309-421.328-351.309c-4.87-3.254-9.742-4.673-14.612-4.262-5.281 0.808-9.543 3.043-12.786 6.696l-37.75 45.057c-3.253 4.051-4.671 8.827-4.262 14.308 0.4 5.478 2.635 9.836 6.698 13.090l437.766 364.705c12.986 10.55 28.407 15.83 46.274 15.83 17.857 0 33.277-5.28 46.273-15.83l148.56-124.207v118.727c0 5.679 1.827 10.351 5.481 14.004s8.313 5.479 14.003 5.479h116.9c5.679 0 10.35-1.827 14.005-5.479 3.652-3.654 5.479-8.325 5.479-14.004v-248.413l133.338-110.811c4.053-3.254 6.289-7.611 6.698-13.090 0.398-5.481-1.020-10.257-4.263-14.308zM862.703 388.637v-292.251c0-10.561-3.864-19.69-11.569-27.396-7.715-7.716-16.848-11.571-27.399-11.571h-233.799v233.8h-155.866v-233.8h-233.802c-10.559 0-19.693 3.855-27.398 11.571-7.716 7.705-11.568 16.835-11.568 27.396v292.251c0 0.399 0.095 1.008 0.304 1.826 0.201 0.808 0.304 1.417 0.304 1.828l350.092 288.597 350.090-288.597c0.401-0.818 0.61-2.037 0.61-3.654z" />
<glyph unicode="&#xe940;" glyph-name="humidity" data-tags="humidity" d="M343.85 940.839c-66.065 0-120.302-53.684-120.482-119.581 0-173.265 0-346.678 0-519.996-60.721-50.281-87.010-132.437-63.368-209.062 25.080-81.282 99.564-137.083 183.803-137.041 84.254 0 158.658 55.876 183.663 137.181 23.561 76.61-2.666 158.702-63.414 208.918 0 173.24 0 346.481 0 519.718-0.032 65.897-54.139 119.861-120.202 119.861v0.002zM343.803 892.622c40.156 0 72.091-31.923 72.11-71.784 0-180.531 0-361.066 0-541.597l10.154-7.186c51.856-36.677 74.365-103.844 55.377-165.585-18.984-61.726-74.656-103.238-137.641-103.238h-0.049c-62.999 0-118.743 41.395-137.782 103.098-19.035 61.688 3.552 128.995 55.375 165.725l10.157 7.186c0 180.58 0 361.159 0 541.735 0.109 39.862 32.141 71.645 72.3 71.645v0zM343.714 243.648c-52.825 0-96.164-43.336-96.164-96.161s43.339-96.165 96.164-96.165 96.163 43.34 96.163 96.165-43.338 96.161-96.163 96.161zM343.714 195.568c26.84 0 48.083-21.241 48.083-48.081s-21.243-48.081-48.083-48.081-48.083 21.241-48.083 48.081 21.243 48.081 48.083 48.081zM343.339 532.145c-13.278-0.208-23.874-11.137-23.666-24.414v-287.777c-0.187-13.275 10.424-24.19 23.7-24.38 13.278-0.185 24.194 10.424 24.381 23.698 0.004 0.231 0.004 0.458 0 0.682v287.774c0.21 13.276-10.385 24.209-23.662 24.417-0.253 0.002-0.505 0.002-0.755 0zM631.408 916.782c-7.603-0.248-14.637-4.078-18.973-10.329 0 0-12.494-18.043-25.072-39.73-6.289-10.846-12.665-22.663-17.749-34.237-5.085-11.576-9.53-21.986-9.53-35.882 0-39.556 32.572-72.134 72.123-72.134 39.547 0 72.123 32.578 72.123 72.134 0 13.896-4.449 24.306-9.534 35.88-5.084 11.575-11.46 23.393-17.749 34.237-12.578 21.687-25.072 39.73-25.072 39.73-4.658 6.715-12.405 10.606-20.568 10.331zM632.206 847.746c1.586-2.631 1.62-2.379 3.237-5.162 5.732-9.882 11.378-20.499 15.308-29.445 3.933-8.953 5.493-17.15 5.493-16.534 0-13.566-10.476-24.044-24.038-24.044-13.566 0-24.042 10.476-24.042 24.044 0-0.626 1.56 7.58 5.493 16.534 3.93 8.946 9.576 19.562 15.308 29.445 1.619 2.788 1.653 2.531 3.243 5.162zM799.693 796.579c-7.599-0.25-14.634-4.080-18.969-10.331 0 0-12.494-18.043-25.072-39.73-6.294-10.844-12.669-22.662-17.75-34.235-5.085-11.578-9.534-21.986-9.534-35.883 0-39.557 32.577-72.135 72.124-72.135s72.123 32.578 72.123 72.135c0 13.897-4.449 24.305-9.53 35.881-5.085 11.573-11.461 23.393-17.75 34.237-12.581 21.687-25.076 39.728-25.076 39.728-4.653 6.715-12.399 10.605-20.566 10.331v0.002zM800.492 727.543c1.59-2.633 1.62-2.379 3.241-5.164 5.728-9.88 11.373-20.496 15.307-29.445 3.93-8.953 5.494-17.148 5.494-16.534 0-13.565-10.48-24.044-24.042-24.044s-24.042 10.477-24.042 24.044c0-0.624 1.564 7.58 5.494 16.534 3.934 8.949 9.578 19.565 15.308 29.445 1.621 2.789 1.651 2.53 3.242 5.164z" />
</font>
</defs>
</svg>
